Coordinates
version=1
nRows=14
nColumns=24
inDegrees=yes

Units are S.I. units (second, meters, Newtons, ...)
Angles are in degrees.

endheader
time	pelvis_tilt	pelvis_list	pelvis_rotation	pelvis_tx	pelvis_ty	pelvis_tz	hip_flexion_r	hip_adduction_r	hip_rotation_r	knee_angle_r	ankle_angle_r	subtalar_angle_r	mtp_angle_r	hip_flexion_l	hip_adduction_l	hip_rotation_l	knee_angle_l	ankle_angle_l	subtalar_angle_l	mtp_angle_l	lumbar_extension	lumbar_bending	lumbar_rotation
      1.14533333	     -1.11996950	      6.01889394	      0.56575179	      0.12990575	      0.99398465	      0.29100801	     24.50370225	     -6.69632636	     -1.17090752	    -71.74909429	      1.14919203	    -12.36531703	     -0.80771756	      9.07496171	     11.13847964	      4.84112212	    -12.82479753	      3.12621295	    -12.30189467	     -0.70081311	     -0.87291191	     -3.17991332	      3.20359725
      1.14950000	     -1.04503280	      5.87909278	      0.58142424	      0.13508926	      0.99487301	      0.29101553	     24.91505062	     -6.48639337	     -1.09206422	    -71.26136932	      1.70903448	    -12.56103230	     -1.04244517	      8.45086915	     10.98911303	      5.05919790	    -12.43915675	      3.14401779	    -12.44011319	     -0.83427338	     -0.98828531	     -3.01025874	      3.11138221
      1.15366667	     -1.04000541	      5.74235750	      0.60333557	      0.14023654	      0.99558013	      0.29103044	     25.39565065	     -6.28396948	     -1.01791214	    -70.73513824	      2.32249201	    -12.70508939	     -1.08364886	      7.94476059	     10.83618842	      5.19524653	    -12.13520185	      3.28779210	    -12.43515259	     -0.85970641	     -1.01334055	     -2.83971168	      3.08171116
      1.15783333	     -0.97859833	      5.63029391	      0.61764375	      0.14537647	      0.99632515	      0.29106211	     25.79612306	     -6.10487596	     -0.93251925	    -70.14919780	      2.89933668	    -12.95671295	     -1.21689452	      7.35311329	     10.71091257	      5.39645119	    -11.77725324	      3.37277202	    -12.51261001	     -0.93659681	     -1.12909815	     -2.72474105	      2.98960087
      1.16200000	     -0.96323522	      5.50708322	      0.66388988	      0.15051527	      0.99699760	      0.29103251	     26.21689601	     -5.93532504	     -0.88934313	    -69.49722647	      3.53401906	    -13.05136621	     -2.72596826	      6.80188690	     10.58356818	      5.68259359	    -11.40110862	      3.36656124	    -12.72501447	     -1.77856682	     -1.17069816	     -2.58632177	      2.88601449
      1.16616667	     -0.94284590	      5.35463460	      0.67176614	      0.15563512	      0.99762146	      0.29110940	     26.61494762	     -5.70753256	     -0.81562396	    -68.76671339	      4.04628991	    -13.21732680	     -2.75096522	      6.30072292	     10.40211962	      5.76852743	    -11.12932827	      3.54143212	    -12.68450300	     -1.79007797	     -1.23020511	     -2.40107086	      2.85909089
      1.17033333	     -0.90561291	      5.22034410	      0.69809881	      0.16075410	      0.99821839	      0.29115646	     26.97048174	     -5.51432066	     -0.76308394	    -67.98266329	      4.57235433	    -13.41111367	     -2.78427869	      5.76801827	     10.24326585	      5.90522785	    -10.82814962	      3.67003290	    -12.67174389	     -1.80582975	     -1.30470767	     -2.25598932	      2.80442589
      1.17450000	     -0.88113566	      5.08705631	      0.72667770	      0.16587041	      0.99875904	      0.29119747	     27.31888596	     -5.32704469	     -0.71778298	    -67.13988209	      5.06278910	    -13.59936826	     -2.82272904	      5.24950080	     10.08597399	      6.05060048	    -10.52644223	      3.78663761	    -12.69123454	     -1.82360856	     -1.36865148	     -2.10119622	      2.73766157
      1.17866667	     -0.83489382	      4.98882088	      0.75019727	      0.17098246	      0.99925923	      0.29122837	     27.63191014	     -5.18467494	     -0.67119414	    -66.25700915	      5.51243105	    -13.83471878	     -2.90713791	      4.68960463	      9.96740251	      6.22440415	    -10.18475603	      3.88691740	    -12.76261934	     -1.86052601	     -1.46445507	     -1.98535497	      2.62909331
      1.18283333	     -0.81924492	      4.85982538	      0.78584059	      0.17607621	      0.99970204	      0.29127109	     27.94600759	     -5.00752735	     -0.63788342	    -65.29664338	      5.93404165	    -14.03184832	     -3.00550764	      4.18296680	      9.81311548	      6.38701563	     -9.88191313	      3.98868316	    -12.81097705	     -1.90190234	     -1.52445393	     -1.84025469	      2.54496155
      1.18700000	     -0.84871533	      4.74940640	      0.82762336	      0.18114698	      1.00000857	      0.29130235	     28.29564468	     -4.85755410	     -0.60684892	    -64.29500668	      6.34891538	    -14.17094505	     -3.05200427	      3.74721107	      9.67831224	      6.51349971	     -9.61990951	      4.10603513	    -12.82614587	     -1.92053170	     -1.52419658	     -1.71041225	      2.49957666
      1.19116667	     -0.85004357	      4.63955506	      0.87024549	      0.18621762	      1.00030885	      0.29134268	     28.59162019	     -4.71128716	     -0.58631338	    -63.23789417	      6.72207073	    -14.36167946	     -3.10651740	      3.27163210	      9.54122444	      6.65062270	     -9.33642091	      4.22632376	    -12.84728553	     -1.94079108	     -1.57041403	     -1.59045523	      2.43123243
      1.19533333	     -0.83896027	      4.53705370	      0.91023637	      0.19130331	      1.00060341	      0.29138935	     28.84386289	     -4.57196129	     -0.56409041	    -62.11370101	      7.03534628	    -14.57381093	     -3.17263646	      2.77977305	      9.41107208	      6.79151811	     -9.04955491	      4.33814008	    -12.87184400	     -1.96406529	     -1.61677066	     -1.47226258	      2.34956148
      1.19950000	     -0.82055788	      4.45680899	      0.94614942	      0.19637811	      1.00083617	      0.29142776	     29.07643418	     -4.46122119	     -0.54211643	    -60.95301996	      7.28709866	    -14.82495427	     -3.27866633	      2.27414328	      9.30461388	      6.93462342	     -8.74748339	      4.45047759	    -12.91158791	     -2.00029004	     -1.67747804	     -1.37988236	      2.24076973
